<?xml version="1.0" encoding="utf-8"?>
<!-- Generator: Adobe Illustrator 16.0.0, SVG Export Plug-In . SVG Version: 6.00 Build 0)  -->
<!DOCTYPE svg PUBLIC "-//W3C//DTD SVG 1.1//EN" "http://www.w3.org/Graphics/SVG/1.1/DTD/svg11.dtd">
<svg version="1.1" id="Layer_1" xmlns="http://www.w3.org/2000/svg" xmlns:xlink="http://www.w3.org/1999/xlink" x="0px" y="0px"
	 width="50px" height="50px" viewBox="0 0 50 50" enable-background="new 0 0 50 50" xml:space="preserve">
<g>
	<path fill-rule="evenodd" clip-rule="evenodd" fill="#F0ECEC" d="M3.913,30.938c0.189-0.952,0.336-1.914,0.577-2.852
		c0.352-1.369,1.015-2.576,1.974-3.639C11.685,18.661,16.9,12.867,22.083,7.045c0.782-0.879,1.571-1.133,2.72-0.869
		c6.331,1.454,12.676,2.85,19.016,4.263c1.602,0.357,2.059,1.748,0.979,2.991c-5.493,6.326-10.983,12.653-16.478,18.977
		c-0.186,0.215-0.37,0.44-0.593,0.611c-0.503,0.385-1.064,0.391-1.66,0.22c-5.308-1.521-10.617-3.033-15.926-4.547
		c-0.169-0.048-0.339-0.101-0.512-0.123c-1.36-0.18-2.143,0.385-2.402,1.747c-0.226,1.187-0.175,2.354,0.396,3.444
		c0.501,0.957,1.231,1.634,2.316,1.952c5.7,1.672,11.392,3.373,17.083,5.074c0.276,0.082,0.431,0.035,0.614-0.187
		c4.627-5.585,9.259-11.165,13.899-16.738c0.228-0.274,0.295-0.514,0.229-0.874c-0.244-1.303-0.136-2.588,0.316-3.841
		c0.283-0.785,0.96-1.267,1.692-1.19c0.731,0.077,1.319,0.634,1.405,1.407c0.032,0.284-0.024,0.598-0.116,0.873
		c-0.33,0.989-0.332,1.966,0.021,2.946c0.25,0.695,0.066,1.29-0.392,1.841c-2.904,3.491-5.804,6.986-8.704,10.479
		c-2.208,2.659-4.423,5.313-6.619,7.981c-0.589,0.716-1.27,0.927-2.158,0.662c-6.186-1.845-12.378-3.664-18.561-5.518
		c-1.776-0.532-2.966-1.789-3.834-3.373c-0.46-0.84-0.709-1.753-0.82-2.704c-0.016-0.132-0.054-0.262-0.082-0.393
		C3.913,31.752,3.913,31.345,3.913,30.938z M23.46,12.335c-0.692,0.02-1.196,0.126-1.565,0.534
		c-0.445,0.492-0.872,1.001-1.284,1.521c-0.272,0.344-0.176,0.71,0.215,0.907c0.156,0.078,0.325,0.139,0.494,0.181
		c3.862,0.945,7.724,1.89,11.588,2.823c0.898,0.216,1.686,0.034,2.276-0.747c0.295-0.388,0.631-0.744,0.938-1.122
		c0.376-0.46,0.289-0.817-0.254-1.051c-0.148-0.064-0.304-0.116-0.461-0.154c-3.086-0.755-6.173-1.508-9.261-2.258
		C25.202,12.739,24.254,12.522,23.46,12.335z"/>
</g>
</svg>
