<?xml version="1.0" encoding="utf-8"?>
<!-- Generator: Adobe Illustrator 16.0.0, SVG Export Plug-In . SVG Version: 6.00 Build 0)  -->
<!DOCTYPE svg PUBLIC "-//W3C//DTD SVG 1.1//EN" "http://www.w3.org/Graphics/SVG/1.1/DTD/svg11.dtd">
<svg version="1.1" id="Capa_1" xmlns="http://www.w3.org/2000/svg" xmlns:xlink="http://www.w3.org/1999/xlink" x="0px" y="0px"
	 width="407.979px" height="496.928px" viewBox="0 0 407.979 496.928" enable-background="new 0 0 407.979 496.928"
	 xml:space="preserve">
<g>
	<polygon fill="none" stroke="#000000" stroke-miterlimit="10" points="46.577,288.688 48.412,296.789 47.092,288.729 	"/>
	<polygon fill="none" stroke="#000000" stroke-width="2" stroke-miterlimit="10" points="306.896,167.47 248.323,159.734 
		103.496,125.567 77.273,167.557 60.39,289.82 47.092,288.729 48.412,296.789 61.578,354.898 57.932,354.898 60.865,372.803 
		54.582,459.95 99.151,496.928 173.396,486.925 189.06,437.898 266.162,437.898 284.134,417.313 316.647,293.408 309.472,253.277 
		309.847,216.182 324.872,190.995 326.506,160.487 306.896,144.657 	"/>
</g>
<polygon fill="none" stroke="#000000" stroke-width="2" stroke-miterlimit="10" points="227.681,265.336 240.892,250.508 
	257.038,257.667 271.634,309.09 283.071,327.014 278.938,343.881 258.737,347.602 234.508,339.975 "/>
<path fill="none" stroke="#000000" stroke-width="2" stroke-miterlimit="10" d="M68.357,206.161"/>
<polygon fill="none" stroke="#000000" stroke-width="2" stroke-miterlimit="10" points="189.06,203.493 184.146,229.527 
	91.322,235.091 92.191,227.73 "/>
<polygon fill="none" stroke="#000000" stroke-width="2" stroke-miterlimit="10" points="143.896,252.783 154.896,245.691 
	165.896,252.783 165.896,266.964 154.896,262.605 143.896,266.964 "/>
<polygon fill="none" stroke="#000000" stroke-width="2" stroke-miterlimit="10" points="46.577,288.688 60.39,289.82 
	77.272,167.557 103.496,125.567 248.323,159.734 306.896,167.47 306.896,144.657 332.294,165.159 377.724,137.929 397.229,94.553 
	359.255,103.724 345.293,88.176 314.86,50.38 256.952,14.871 202.216,7.832 140.259,16.07 161.699,43.679 43.51,53.914 
	27.312,103.582 6.384,181.463 17.267,233.602 57.427,354.898 61.578,354.898 "/>
<polyline fill="none" stroke="#000000" stroke-width="2" stroke-miterlimit="10" points="50.396,299.634 61.578,301.699 
	124.546,372.713 173.396,391.635 224.371,376.664 265.991,376.07 287.589,389.421 298.682,361.743 284.176,416.666 266.162,436.606 
	170.028,436.462 68.357,372.713 61.578,354.898 "/>
<path fill="none" stroke="#000000" stroke-width="2" stroke-linecap="round" stroke-miterlimit="10" d="M216.597,408.779
	c0,0,34.995,20.882,48.895-7.816"/>
<polygon fill="none" stroke="#000000" stroke-width="2" stroke-miterlimit="10" points="267.014,205.047 270.489,228.074 
	336.148,232.996 335.533,226.483 "/>
<polygon fill="none" stroke="#000000" stroke-width="2" stroke-miterlimit="10" points="297.896,248.644 289.396,242.371 
	280.896,248.644 280.896,261.186 289.396,257.563 297.896,261.186 "/>
<polygon fill="none" stroke="#000000" stroke-width="2" stroke-miterlimit="10" points="53.977,272.166 43.896,273.994 
	43.896,265.461 27.472,225.624 44.525,219.021 61.408,225.624 53.833,264.395 "/>
</svg>
