<?xml version="1.0" encoding="utf-8"?>
<!-- Generator: Adobe Illustrator 16.0.0, SVG Export Plug-In . SVG Version: 6.00 Build 0)  -->
<!DOCTYPE svg PUBLIC "-//W3C//DTD SVG 1.1//EN" "http://www.w3.org/Graphics/SVG/1.1/DTD/svg11.dtd">
<svg version="1.1" id="Layer_1" xmlns="http://www.w3.org/2000/svg" xmlns:xlink="http://www.w3.org/1999/xlink" x="0px" y="0px"
	 width="67px" height="67px" viewBox="0 0 67 67" enable-background="new 0 0 67 67" xml:space="preserve">
<g>
	<path fill="#F9F7F7" d="M29.265,49.818h6.744v-16.32h4.499l0.596-5.624h-5.095l0.007-2.816c0-1.466,0.141-2.253,2.244-2.253h2.813
		V17.18h-4.5c-5.405,0-7.307,2.729-7.307,7.317v3.377h-3.369v5.625h3.369V49.818z"/>
	<path fill="#3A589B" d="M3.5,63.5h60v-60h-60V63.5z M25.896,27.874h3.369v-3.377c0-4.588,1.902-7.317,7.307-7.317h4.5v5.625H38.26
		c-2.104,0-2.244,0.787-2.244,2.253l-0.007,2.816h5.095l-0.596,5.624h-4.499v16.32h-6.744V33.499h-3.369V27.874z"/>
</g>
</svg>
