<?xml version="1.0" encoding="utf-8"?>
<!-- Generator: Adobe Illustrator 16.0.0, SVG Export Plug-In . SVG Version: 6.00 Build 0)  -->
<!DOCTYPE svg PUBLIC "-//W3C//DTD SVG 1.1//EN" "http://www.w3.org/Graphics/SVG/1.1/DTD/svg11.dtd">
<svg version="1.1" id="Capa_1" xmlns="http://www.w3.org/2000/svg" xmlns:xlink="http://www.w3.org/1999/xlink" x="0px" y="0px"
	 width="1024px" height="768px" viewBox="0 0 1024 768" enable-background="new 0 0 1024 768" xml:space="preserve">
<polygon fill="#FFFFFF" stroke="#000000" stroke-width="2" stroke-miterlimit="10" points="258.262,338.253 335.004,243.438 
	443.609,208.78 557,248.614 557,318.317 554.977,356.097 539.951,381.283 539.576,418.379 546.752,458.51 514.238,582.414 
	496.267,603 419.164,603 403.5,652.026 329.256,662.029 284.686,625.052 290.97,537.904 "/>
<polygon fill="#FFFFFF" stroke="#000000" stroke-width="2" stroke-miterlimit="10" points="457.785,430.438 470.996,415.609 
	487.143,422.769 501.738,474.191 513.176,492.115 509.043,508.982 488.842,512.703 464.612,505.076 "/>
<path fill="#FFFFFF" stroke="#000000" stroke-width="2" stroke-miterlimit="10" d="M298.462,371.262"/>
<polygon fill="#FFFFFF" stroke="#000000" stroke-width="2" stroke-miterlimit="10" points="419.164,368.594 414.25,394.629 
	321.427,400.192 322.296,392.832 "/>
<polygon fill="#FFFFFF" stroke="#000000" stroke-width="2" stroke-miterlimit="10" points="374,417.885 385,410.793 396,417.885 
	396,432.065 385,427.707 374,432.065 "/>
<polygon fill="#FFFFFF" stroke="#000000" stroke-width="2" stroke-miterlimit="10" points="276.681,453.789 290.494,454.922 
	307.377,332.659 333.601,290.668 478.428,324.835 537,332.572 537,309.759 562.398,330.261 607.828,303.031 627.334,259.655 
	589.359,268.826 575.397,253.278 544.965,215.482 487.057,179.973 432.32,172.934 370.363,181.172 391.804,208.78 273.614,219.015 
	257.417,268.683 236.488,346.564 247.371,398.703 287.531,520 291.683,520 "/>
<polygon fill="#FFFFFF" stroke="#000000" stroke-width="2" stroke-miterlimit="10" points="403.5,556.736 354.651,537.814 
	291.683,466.801 278.213,464.735 298.462,537.814 400.133,601.563 496.267,601.708 514.28,581.768 528.786,526.845 517.693,554.522 
	496.096,541.172 454.476,541.766 "/>
<path fill="#FFFFFF" stroke="#000000" stroke-width="2" stroke-linecap="round" stroke-miterlimit="10" d="M446.701,573.881
	c0,0,34.995,20.882,48.895-7.816"/>
<polygon fill="#FFFFFF" stroke="#000000" stroke-width="2" stroke-miterlimit="10" points="497.118,370.149 500.594,393.176 
	566.253,398.098 565.638,391.585 "/>
<polygon fill="#FFFFFF" stroke="#000000" stroke-width="2" stroke-miterlimit="10" points="528,413.745 519.5,407.473 511,413.745 
	511,426.287 519.5,422.664 528,426.287 "/>
<polygon fill="#FFFFFF" stroke="#000000" stroke-width="2" stroke-miterlimit="10" points="284.082,437.268 274,439.096 
	274,430.563 257.576,390.726 274.629,384.122 291.513,390.726 283.938,429.496 "/>
</svg>
