<?xml version="1.0" encoding="utf-8"?>
<!-- Generator: Adobe Illustrator 16.0.0, SVG Export Plug-In . SVG Version: 6.00 Build 0)  -->
<!DOCTYPE svg PUBLIC "-//W3C//DTD SVG 1.1//EN" "http://www.w3.org/Graphics/SVG/1.1/DTD/svg11.dtd">
<svg version="1.1" id="Layer_1" xmlns="http://www.w3.org/2000/svg" xmlns:xlink="http://www.w3.org/1999/xlink" x="0px" y="0px"
	 width="50px" height="50px" viewBox="0 0 50 50" enable-background="new 0 0 50 50" xml:space="preserve">
<g>
	<path fill-rule="evenodd" clip-rule="evenodd" fill="#F0ECEC" d="M42.918,33.678c-0.445,2.762-0.848,5.353-1.303,7.937
		c-0.041,0.224-0.393,0.508-0.641,0.555c-0.465,0.09-0.959,0.029-1.441,0.029c-9.938,0-19.878-0.015-29.816,0.021
		c-0.992,0.004-1.419-0.186-1.539-1.273c-0.262-2.383-0.704-4.746-1.097-7.273c0.872,0,1.602,0,2.332,0
		c3.004,0,6.009,0.047,9.011-0.025c1.031-0.024,1.81,0.245,2.383,1.065c0.779,1.116,1.821,1.537,3.154,1.324
		c0.326-0.052,0.671-0.045,1-0.002c1.988,0.262,3.719-0.092,4.916-1.902c0.156-0.233,0.553-0.435,0.838-0.436
		C34.713,33.669,38.713,33.678,42.918,33.678z"/>
	<path fill-rule="evenodd" clip-rule="evenodd" fill="#F0ECEC" d="M41.928,16.264c-0.398,5.07-0.791,10.081-1.191,15.186
		c-1.156,0-2.275,0-3.531,0c0.258-3.923,0.514-7.823,0.775-11.806c-8.746,0-17.396,0-26.115,0c0.293,3.965,0.583,7.864,0.877,11.836
		c-1.219,0-2.313,0-3.56,0c-0.39-5.044-0.78-10.086-1.176-15.216C19.329,16.264,30.566,16.264,41.928,16.264z"/>
	<path fill-rule="evenodd" clip-rule="evenodd" fill="#F0ECEC" d="M10.256,14.191c-0.104-0.811-0.201-1.575-0.311-2.436
		c9.985,0,19.887,0,29.954,0c-0.094,0.793-0.186,1.575-0.287,2.436C29.848,14.191,20.126,14.191,10.256,14.191z"/>
	<path fill-rule="evenodd" clip-rule="evenodd" fill="#F0ECEC" d="M22.537,26.53c0.152,0.136,0.457,0.405,0.759,0.675
		c0.276,0.246,0.55,0.493,0.921,0.824c1.178-1.488,2.337-2.95,3.568-4.507c1.944,2.609,3.833,5.142,5.829,7.817
		c-5.523,0-10.837,0-15.914,0C19.224,29.825,20.864,28.194,22.537,26.53z"/>
	<path fill-rule="evenodd" clip-rule="evenodd" fill="#F0ECEC" d="M12.151,7.78c8.637,0,17.181,0,25.821,0
		c-0.109,0.717-0.207,1.363-0.326,2.137c-0.482,0-0.916,0-1.346,0c-7.299,0-14.597,0.013-21.896-0.008
		C12.149,9.903,12.462,10.36,12.151,7.78z"/>
	<path fill-rule="evenodd" clip-rule="evenodd" fill="#F0ECEC" d="M18.974,21.553c1.196-0.017,2.174,0.822,2.199,1.884
		c0.025,1.066-0.922,1.938-2.123,1.954c-1.228,0.017-2.163-0.786-2.184-1.877C16.845,22.423,17.762,21.569,18.974,21.553z"/>
</g>
</svg>
