<?xml version="1.0" encoding="utf-8"?>
<!-- Generator: Adobe Illustrator 16.0.0, SVG Export Plug-In . SVG Version: 6.00 Build 0)  -->
<!DOCTYPE svg PUBLIC "-//W3C//DTD SVG 1.1//EN" "http://www.w3.org/Graphics/SVG/1.1/DTD/svg11.dtd">
<svg version="1.1" id="Layer_1" xmlns="http://www.w3.org/2000/svg" xmlns:xlink="http://www.w3.org/1999/xlink" x="0px" y="0px"
	 width="56.693px" height="56.693px" viewBox="0 0 56.693 56.693" enable-background="new 0 0 56.693 56.693" xml:space="preserve">
<g id="iphone">
	<path fill="#F0ECEC" d="M35.018,12.346H21.675c-1.383,0-2.502,1.343-2.502,3v26c0,1.658,1.12,3,2.502,3h13.344
		c1.381,0,2.502-1.344,2.502-3v-26C37.52,13.688,36.399,12.346,35.018,12.346z M35.852,41.346c0,0.551-0.375,1-0.834,1H21.675
		c-0.46,0-0.834-0.447-0.834-1v-2.004h15.012V41.346z M35.852,38.343H20.841V18.346h15.012V38.343z M35.852,17.346H20.841v-2
		c0-0.552,0.374-1,0.834-1h13.344c0.459,0,0.834,0.448,0.834,1V17.346z"/>
	<path fill="#F0ECEC" d="M30.014,15.846c0,0.276-0.188,0.5-0.416,0.5h-2.503c-0.231,0-0.417-0.224-0.417-0.5l0,0
		c0-0.277,0.186-0.5,0.417-0.5h2.503C29.827,15.346,30.014,15.57,30.014,15.846L30.014,15.846z"/>
	<path fill="#F0ECEC" d="M29.18,40.843c0,0.275-0.188,0.5-0.417,0.5h-0.834c-0.23,0-0.417-0.225-0.417-0.5l0,0
		c0-0.277,0.187-0.5,0.417-0.5h0.834C28.993,40.343,29.18,40.565,29.18,40.843L29.18,40.843z"/>
</g>
</svg>
