<?xml version="1.0" encoding="utf-8"?>
<!-- Generator: Adobe Illustrator 16.0.0, SVG Export Plug-In . SVG Version: 6.00 Build 0)  -->
<!DOCTYPE svg PUBLIC "-//W3C//DTD SVG 1.1//EN" "http://www.w3.org/Graphics/SVG/1.1/DTD/svg11.dtd">
<svg version="1.1" id="Layer_1" xmlns="http://www.w3.org/2000/svg" xmlns:xlink="http://www.w3.org/1999/xlink" x="0px" y="0px"
	 width="50px" height="50px" viewBox="0 0 50 50" enable-background="new 0 0 50 50" xml:space="preserve">
<g>
	<path fill="#F0ECEC" d="M24.666,7.06c-9.723,0-17.606,7.882-17.606,17.607c0,7.208,4.334,13.401,10.538,16.125
		c-0.049-1.23-0.009-2.706,0.308-4.041c0.338-1.43,2.265-9.594,2.265-9.594s-0.563-1.124-0.563-2.787
		c0-2.609,1.513-4.557,3.396-4.557c1.602,0,2.375,1.203,2.375,2.643c0,1.61-1.027,4.018-1.555,6.248
		c-0.44,1.866,0.937,3.392,2.78,3.392c3.335,0,5.583-4.285,5.583-9.361c0-3.858-2.6-6.747-7.327-6.747
		c-5.341,0-8.668,3.982-8.668,8.431c0,1.535,0.453,2.616,1.161,3.454c0.325,0.385,0.372,0.54,0.254,0.979
		c-0.084,0.324-0.279,1.105-0.359,1.415c-0.117,0.446-0.479,0.605-0.882,0.44c-2.459-1.004-3.605-3.698-3.605-6.727
		c0-5.001,4.218-10.998,12.582-10.998c6.722,0,11.145,4.864,11.145,10.085c0,6.906-3.835,12.065-9.495,12.065
		c-1.902,0-3.69-1.027-4.303-2.193c0,0-1.022,4.057-1.238,4.839c-0.374,1.359-1.105,2.715-1.773,3.771
		c1.584,0.468,3.256,0.723,4.99,0.723c9.725,0,17.605-7.881,17.605-17.605C42.271,14.942,34.388,7.06,24.666,7.06z"/>
</g>
</svg>
