<?xml version="1.0" encoding="utf-8"?>
<!-- Generator: Adobe Illustrator 16.0.0, SVG Export Plug-In . SVG Version: 6.00 Build 0)  -->
<!DOCTYPE svg PUBLIC "-//W3C//DTD SVG 1.1//EN" "http://www.w3.org/Graphics/SVG/1.1/DTD/svg11.dtd">
<svg version="1.1" id="Layer_1" xmlns="http://www.w3.org/2000/svg" xmlns:xlink="http://www.w3.org/1999/xlink" x="0px" y="0px"
	 width="50px" height="50px" viewBox="0 0 50 50" enable-background="new 0 0 50 50" xml:space="preserve">
<path fill="#F0ECEC" d="M25,7.375c-9.389,0-17,7.611-17,17c0,9.387,7.611,17,17,17c9.387,0,17-7.613,17-17
	C42,14.986,34.386,7.375,25,7.375z M30.926,33.783c-0.913,0.428-1.74,0.733-2.487,0.9c-0.731,0.172-1.535,0.266-2.396,0.266
	c-0.983,0-1.561-0.133-2.312-0.367c-0.751-0.255-1.395-0.604-1.926-1.059c-0.531-0.465-0.896-0.95-1.104-1.461
	c-0.208-0.518-0.309-1.262-0.309-2.245V22.31h-2.904v-3.028c0.839-0.276,1.811-0.665,2.409-1.175
	c0.605-0.514,1.084-1.127,1.447-1.842c0.361-0.715,0.613-1.622,0.751-2.725h3.045v4.949h4.95v3.82h-4.95v5.494
	c0,1.235-0.016,1.957,0.115,2.302c0.128,0.359,0.459,0.722,0.818,0.926c0.47,0.288,1.007,0.434,1.624,0.434
	c1.079,0,2.162-0.361,3.229-1.063V33.783L30.926,33.783z"/>
</svg>
