<?xml version="1.0" encoding="utf-8"?>
<!-- Generator: Adobe Illustrator 16.0.0, SVG Export Plug-In . SVG Version: 6.00 Build 0)  -->
<!DOCTYPE svg PUBLIC "-//W3C//DTD SVG 1.1//EN" "http://www.w3.org/Graphics/SVG/1.1/DTD/svg11.dtd">
<svg version="1.1" id="Layer_1" xmlns="http://www.w3.org/2000/svg" xmlns:xlink="http://www.w3.org/1999/xlink" x="0px" y="0px"
	 width="67px" height="67px" viewBox="0 0 67 67" enable-background="new 0 0 67 67" xml:space="preserve">
<g id="g3763">
	<rect id="rect2987" x="3.5" y="3.499" fill="#00ABF1" width="60" height="60.001"/>
	<g id="layer1_2_" transform="matrix(1.418485,0,0,1.418485,-507.62367,-651.3318)">
		<path id="path5_1_" fill="#FFFFFF" d="M398.004,472.537c-1.221,0.54-2.527,0.909-3.903,1.074c1.404-0.847,2.478-2.169,2.982-3.757
			c-1.292,0.782-2.749,1.341-4.304,1.649c-1.239-1.322-2.988-2.146-4.952-2.146c-3.722,0-6.77,3.036-6.77,6.791
			c0,0.52,0.061,1.039,0.175,1.538c-5.628-0.274-10.627-2.98-13.973-7.085c-0.579,1.007-0.921,2.164-0.921,3.411
			c0,2.348,1.193,4.433,3.016,5.651c-1.104-0.041-2.158-0.351-3.066-0.85c0,0.024,0,0.046,0,0.086c0,3.284,2.334,6.022,5.432,6.641
			c-0.564,0.165-1.165,0.248-1.778,0.248c-0.444,0-0.865-0.041-1.278-0.124c0.866,2.685,3.367,4.649,6.331,4.709
			c-2.324,1.818-5.238,2.892-8.417,2.892c-0.558,0-1.095-0.041-1.621-0.083c3.004,1.907,6.557,3.044,10.398,3.044
			c12.467,0,19.279-10.338,19.279-19.289c0-0.305,0-0.599-0.004-0.888C395.957,475.098,397.096,473.9,398.004,472.537
			L398.004,472.537L398.004,472.537z"/>
	</g>
</g>
</svg>
